# xmcd
#
# Track frame offsets:
#	150
#	10582
#	21867
#	32852
#	59656
#	76693
#	85732
#	98768
#	108853
#	125123
#	142178
#	154850
#
# Disc length: 2224
#
# Revision: 1
# Processed by: cddbd v1.5.1PL0 Copyright (c) Steve Scherf et al.
# Submitted via: CDex 1.50
# Normalized: r0:TSWAP
#
DISCID=9408ae0c
DTITLE=Various Artist - Performing Hearts, Jazz - Vocalists
DYEAR=1998
DGENRE=Jazz
TTITLE0=Tony Bennett W. The Count Basie Orchestra - Anythig Goes
TTITLE1=Ella Fitzgerald - A Tisket A Tasket
TTITLE2=Ella Fitzgerald - That Old Black Magic
TTITLE3=Lena Horne - Frankie And Jonny
TTITLE4=Lena Horne - I Got It Bad And That Ain't Good
TTITLE5=Al Jarreau (Bill Withers) - Ain't No Sunshine
TTITLE6=Jack Jones - Just The Two Of Us
TTITLE7=Mel Torme - I've Got The World On A String
TTITLE8=Sarah Vaughn - 'round Mignight
TTITLE9=Sarah Vaughn - Sohisticated Lady
TTITLE10=Dinah Washington - Unforgettable
TTITLE11=Big Joe Williams - Sloppy Drunk Blues
EXTD=YEAR: 1998
EXTT0=
EXTT1=
EXTT2=
EXTT3=
EXTT4=
EXTT5=
EXTT6=
EXTT7=
EXTT8=
EXTT9=
EXTT10=
EXTT11=
PLAYORDER=
